<?xml version="1.0" encoding="UTF-8" standalone="no"?>
<!-- Created with Inkscape (http://www.inkscape.org/) -->

<svg
   xmlns:dc="http://purl.org/dc/elements/1.1/"
   xmlns:cc="http://creativecommons.org/ns#"
   xmlns:rdf="http://www.w3.org/1999/02/22-rdf-syntax-ns#"
   xmlns:svg="http://www.w3.org/2000/svg"
   xmlns="http://www.w3.org/2000/svg"
   xmlns:xlink="http://www.w3.org/1999/xlink"
   xmlns:sodipodi="http://sodipodi.sourceforge.net/DTD/sodipodi-0.dtd"
   xmlns:inkscape="http://www.inkscape.org/namespaces/inkscape"
   width="59.489632mm"
   height="8.2053137mm"
   viewBox="0 0 59.489632 8.2053137"
   version="1.1"
   id="svg931"
   inkscape:version="0.92.4 (f8dce91, 2019-08-02)"
   sodipodi:docname="logo_thin.svg">
  <defs
     id="defs925">
    <clipPath
       clipPathUnits="userSpaceOnUse"
       id="clipPath900">
      <use
         x="0"
         y="0"
         xlink:href="#g896"
         id="use902"
         width="100%"
         height="100%" />
    </clipPath>
  </defs>
  <sodipodi:namedview
     id="base"
     pagecolor="#ffffff"
     bordercolor="#666666"
     borderopacity="1.0"
     inkscape:pageopacity="0.0"
     inkscape:pageshadow="2"
     inkscape:zoom="3.959798"
     inkscape:cx="120.93252"
     inkscape:cy="-22.012136"
     inkscape:document-units="mm"
     inkscape:current-layer="layer1"
     showgrid="false"
     inkscape:window-width="1920"
     inkscape:window-height="1024"
     inkscape:window-x="0"
     inkscape:window-y="30"
     inkscape:window-maximized="1" />
  <metadata
     id="metadata928">
    <rdf:RDF>
      <cc:Work
         rdf:about="">
        <dc:format>image/svg+xml</dc:format>
        <dc:type
           rdf:resource="http://purl.org/dc/dcmitype/StillImage" />
        <dc:title></dc:title>
      </cc:Work>
    </rdf:RDF>
  </metadata>
  <g
     inkscape:label="Layer 1"
     inkscape:groupmode="layer"
     id="layer1"
     transform="translate(-77.886011,-63.793981)">
    <g
       transform="translate(71.263446,27.281981)"
       id="g898"
       clip-path="url(#clipPath900)">
      <g
         inkscape:label="Clip"
         id="g896">
        <g
           id="g885">
          <text
             xml:space="preserve"
             style="font-style:normal;font-weight:normal;font-size:10.58333302px;line-height:1.25;font-family:sans-serif;letter-spacing:0px;word-spacing:0px;fill:#000000;fill-opacity:1;stroke:none;stroke-width:0.26458332"
             x="16.08197"
             y="39.343971"
             id="text3715-3"><tspan
               sodipodi:role="line"
               x="16.08197"
               y="39.343971"
               style="font-style:normal;font-variant:normal;font-weight:bold;font-stretch:normal;font-family:'Noto Sans Mono';-inkscape-font-specification:'Noto Sans Mono Bold';fill:#07cf44;fill-opacity:1;stroke-width:0.26458332"
               id="tspan3717-7"><tspan
   dx="0"
   dy="5"
   id="tspan4734"
   style="font-style:normal;font-variant:normal;font-weight:bold;font-stretch:normal;font-family:'Noto Sans Mono';-inkscape-font-specification:'Noto Sans Mono Bold';fill:#ff5c00;fill-opacity:1;stroke-width:0.26458332">FOOD</tspan>BYTE</tspan></text>
          <g
             id="g4732"
             transform="matrix(0.51381178,0,0,0.51381178,4.6885146,17.675485)">
            <circle
               r="7.9847469"
               cy="44.645088"
               cx="11.773042"
               id="path4591-5"
               style="fill:#d9d9d9;fill-opacity:1;stroke-width:0.27099746" />
            <a
               id="a4620-3"
               transform="translate(0.52824835,23.803944)">
              <path
                 id="path4687-5"
                 d="m 9.3321161,17.420705 c 1.5026749,-0.73706 3.2648259,-0.301127 4.2827649,0.940695 l -1.573958,1.583102 c -0.179636,0.180676 -0.179636,0.470336 0,0.648149 0.0884,0.08895 0.2053,0.134793 0.322206,0.134793 0.116905,0 0.233813,-0.04587 0.322205,-0.134793 l 1.43139,-1.439707 3.652611,7.534092 c 0.0827,0.172072 0.0884,0.381435 0,0.564986 -0.153975,0.318335 -0.53891,0.450265 -0.855412,0.2954 l -3.809438,-1.869899 1.402877,-1.41103 c 0.179636,-0.177812 0.179636,-0.470347 0,-0.648159 -0.179636,-0.177813 -0.467626,-0.177813 -0.644411,0 L 12.237669,25.253058 9.3292645,23.824833 C 8.6449342,23.489279 8.0604026,22.927156 7.7011289,22.187232 6.8428663,20.417713 7.5728163,18.283955 9.3321161,17.420705 Z"
                 style="fill:#ff5c00;fill-opacity:1;stroke-width:0.02859647"
                 inkscape:connector-curvature="0" />
              <path
                 id="path4572-6"
                 d="m 6.7059989,16.419796 c -0.5560183,-1.167251 -0.2680297,-2.546731 0.8639667,-3.49029 1.4342423,1.19594 1.4969723,3.083045 0.2252589,4.356416 L 7.567115,17.515357 c -1.2660119,1.2791 -3.1450678,1.215998 -4.3312404,-0.22657 0.938103,-1.138578 2.3096143,-1.428238 3.4701243,-0.868991 z"
                 style="fill:#07cf44;fill-opacity:1;stroke-width:0.02859647"
                 inkscape:connector-curvature="0" />
            </a>
          </g>
        </g>
      </g>
    </g>
  </g>
</svg>
